<?xml version="1.0" encoding="UTF-8"?><svg xmlns="http://www.w3.org/2000/svg" width="66.13" height="66.13" xmlns:xlink="http://www.w3.org/1999/xlink" viewBox="0 0 66.13 66.13"><defs><linearGradient id="linear-gradient" x1="21.09" y1="6.14" x2="33.13" y2="52.7" gradientUnits="userSpaceOnUse"><stop offset="0" stop-color="#5d3794"/><stop offset=".2" stop-color="rgba(93,55,148,.84)" stop-opacity=".84"/><stop offset=".61" stop-color="rgba(93,55,148,.43)" stop-opacity=".43"/><stop offset="1" stop-color="#5d3794" stop-opacity="0"/></linearGradient><linearGradient id="linear-gradient-2" x1="40.82" y1="1.04" x2="52.86" y2="47.6" xlink:href="#linear-gradient"/></defs><g isolation="isolate"><g id="Layer_2"><g id="Layer_1-2"><rect width="66.13" height="66.13" fill="#5d3794" stroke-width="0"/><circle cx="33.07" cy="33.07" r="31.81" fill="#5d3794" stroke-width="0"/><g mix-blend-mode="multiply" opacity=".4"><path d="M28.8,16.58c0-2.27.54-3.01,1.28-3.66-6.42.74-14.18,3.11-16.7,6.14-.5.74-.85,1.92-.85,3.46,0,9.58,10.23,31.38,17.44,31.38,3.36,0,8.99-5.49,13.59-12.94-.63.2-1.09.24-1.72.24-5.29-.02-13.04-18.5-13.04-24.62Z" fill="url(#linear-gradient)" stroke-width="0"/><path d="M40.21,12.23c-2.81,0-3.85.54-3.85,3.36,0,6.12,5.49,18.43,9.93,18.43,2.46,0,7.32-9.3,7.32-16.94,0-3.75-6.67-4.84-13.39-4.84Z" fill="url(#linear-gradient-2)" stroke-width="0"/></g><path d="M43.57,38.9l1.29-3.25h3.71l-1.76-4.93,2.2-5.57,6.31,16.75h-4.65l-1.08-3h-6.02Z" fill="rgba(255,255,255,.91)" stroke-width="0"/><path d="M39.6,40.98l6.76-16.75h-4.48s-4.62,10.83-4.62,10.83l-3.29-10.83h-3.44l-3.53,10.83-2.49-4.93-2.25,6.94,2.29,3.92h4.41l3.19-9.71,3.04,9.71h4.42Z" fill="rgba(255,255,255,.91)" stroke-width="0"/><path d="M15.07,35.23h2.76c.84,0,1.58-.09,2.23-.28l.71-2.2,1.99-6.14c-.15-.24-.33-.47-.52-.68-1.02-1.13-2.52-1.7-4.49-1.7h-6.94v16.75h4.25v-5.75ZM18.72,28.08c.4.4.6.94.6,1.62s-.18,1.22-.53,1.62c-.39.44-1.1.66-2.13.66h-1.59v-4.5h1.61c.96,0,1.65.2,2.05.6Z" fill="rgba(255,255,255,.91)" stroke-width="0"/></g></g></g></svg>