<?xml version="1.0" encoding="UTF-8"?><svg xmlns="http://www.w3.org/2000/svg" width="16" height="16" xmlns:xlink="http://www.w3.org/1999/xlink" viewBox="0 0 16 16"><defs><linearGradient id="linear-gradient" x1="5.1" y1="1.49" x2="8.01" y2="12.75" gradientUnits="userSpaceOnUse"><stop offset="0" stop-color="#5d3794"/><stop offset=".2" stop-color="rgba(93,55,148,.84)" stop-opacity=".84"/><stop offset=".61" stop-color="rgba(93,55,148,.43)" stop-opacity=".43"/><stop offset="1" stop-color="#5d3794" stop-opacity="0"/></linearGradient><linearGradient id="linear-gradient-2" x1="9.88" y1=".25" x2="12.79" y2="11.52" xlink:href="#linear-gradient"/></defs><g isolation="isolate"><g id="Layer_2"><g id="Layer_1-2"><rect width="16" height="16" fill="#5d3794" stroke-width="0"/><circle cx="8" cy="8" r="7.7" fill="#5d3794" stroke-width="0"/><g mix-blend-mode="multiply" opacity=".4"><path d="M6.97,4.01c0-.55.13-.73.31-.89-1.55.18-3.43.75-4.04,1.48-.12.18-.2.46-.2.84,0,2.32,2.48,7.59,4.22,7.59.81,0,2.18-1.33,3.29-3.13-.15.05-.26.06-.42.06-1.28,0-3.16-4.48-3.16-5.96Z" fill="url(#linear-gradient)" stroke-width="0"/><path d="M9.73,2.96c-.68,0-.93.13-.93.81,0,1.48,1.33,4.46,2.4,4.46.6,0,1.77-2.25,1.77-4.1,0-.91-1.61-1.17-3.24-1.17Z" fill="url(#linear-gradient-2)" stroke-width="0"/></g><path d="M10.54,9.41l.31-.79h.9l-.43-1.19.53-1.35,1.53,4.05h-1.13l-.26-.73h-1.46Z" fill="rgba(255,255,255,.91)" stroke-width="0"/><path d="M9.58,9.92l1.63-4.05h-1.08s-1.12,2.62-1.12,2.62l-.8-2.62h-.83l-.85,2.62-.6-1.19-.54,1.68.55.95h1.07l.77-2.35.74,2.35h1.07Z" fill="rgba(255,255,255,.91)" stroke-width="0"/><path d="M3.65,8.52h.67c.2,0,.38-.02.54-.07l.17-.53.48-1.49c-.04-.06-.08-.11-.13-.17-.25-.27-.61-.41-1.09-.41h-1.68v4.05h1.03v-1.39ZM4.53,6.8c.1.1.15.23.15.39s-.04.29-.13.39c-.09.11-.27.16-.52.16h-.39v-1.09h.39c.23,0,.4.05.49.15Z" fill="rgba(255,255,255,.91)" stroke-width="0"/></g></g></g></svg>